<svg xmlns="http://www.w3.org/2000/svg" width="805" height="600"><rect width="805" height="600" x="0" y="0" fill="#FFFFFF" id="backgorund"/><g transform="translate(402.5,300)" id="viz"><path fill="#cccccc" display="" d="M0.999992072947904,-191.3307201165001A191.33333333333334,191.33333333333334,0,1,1,-124.47206736783318,145.31052573582565L-62.50999158535184,73.73564535856241A96.66666666666667,96.66666666666667,0,1,0,0.9999920729479188,-96.66149419649216Z"><title>House</title></path><path fill="#cccccc" display="" d="M-125.98415986259886,144.00151356204415A191.33333333333334,191.33333333333334,0,0,1,-0.999992072947885,-191.3307201165001L-0.9999920729478876,-96.66149419649216A96.66666666666667,96.66666666666667,0,0,0,-64.02208408011748,72.42663318478094Z"><title>Senate</title></path><path fill="#9467bd" display="" d="M0.9999920729479248,-287.99826391118063A288,288,0,0,1,233.85789480223266,168.09070479555936L157.17955929448593,112.5715946310123A193.33333333333334,193.33333333333334,0,0,0,0.9999920729479279,-193.33074715014118Z"><title>Democratic</title></path><path fill="#2ca02c" display="" d="M232.68497568570382,169.71064224185653A288,288,0,0,1,-187.7420647307928,218.39623881976266L-125.7811076121275,146.82265065596718A193.33333333333334,193.33333333333334,0,0,0,156.0066401779571,114.19153207730947Z"><title>Republican</title></path><path fill="#ff7f0e" display="" d="M-189.25415722555843,217.0872266459812A288,288,0,0,1,-242.09864650976897,-155.98796542726598L-162.69772413695208,-104.43767681461526A193.33333333333334,193.33333333333334,0,0,0,-127.29320010689314,145.5136384821857Z"><title>Democratic</title></path><path fill="#1f77b4" display="" d="M-241.00957431828115,-157.66542134190652A288,288,0,0,1,-14.273911430199629,-287.6460593376569L-9.910310112978367,-193.07916389720145A193.33333333333334,193.33333333333334,0,0,0,-161.60865194546423,-106.1151327292558Z"><title>Republican</title></path><path fill="#d62728" display="" d="M-12.276053050910908,-287.7382465392657A288,288,0,0,1,-0.99999207294796,-287.99826391118063L-0.9999920729479516,-193.33074715014118A193.33333333333334,193.33333333333334,0,0,0,-7.91245173368963,-193.17135109881022Z"><title>Independent</title></path></g><g id="labels" transform="translate(402.5,300)" text-anchor="middle"><text transform="rotate(90) translate(48.333333333333336,0) rotate(180)"><tspan x="0" y="4" style="font-family: Arial, sans-serif; font-size: 10px; fill: black; font-weight: bold;"/></text><text transform="rotate(20.441301318562964) translate(145,0) rotate(0)"><tspan x="0" y="4" style="font-family: Arial, sans-serif; font-size: 10px; fill: black; font-weight: bold;">House</tspan></text><text transform="rotate(200.44130131856298) translate(145,0) rotate(180)"><tspan x="0" y="4" style="font-family: Arial, sans-serif; font-size: 10px; fill: black; font-weight: bold;">Senate</tspan></text><text transform="rotate(-27.046751488130177) translate(241.66666666666669,0) rotate(0)"><tspan x="0" y="-2" style="font-family: Arial, sans-serif; font-size: 10px; fill: black; font-weight: bold;">674669226</tspan><tspan x="0" y="10" style="font-family: Arial, sans-serif; font-size: 10px; fill: black; font-weight: normal;">550688451</tspan></text><text transform="rotate(83.39454983043282) translate(241.66666666666669,0) rotate(0)"><tspan x="0" y="-2" style="font-family: Arial, sans-serif; font-size: 10px; fill: black; font-weight: bold;">508928905</tspan><tspan x="0" y="10" style="font-family: Arial, sans-serif; font-size: 10px; fill: black; font-weight: normal;">414384035</tspan></text><text transform="rotate(171.93793262572223) translate(241.66666666666669,0) rotate(180)"><tspan x="0" y="-2" style="font-family: Arial, sans-serif; font-size: 10px; fill: black; font-weight: bold;">439989490</tspan><tspan x="0" y="10" style="font-family: Arial, sans-serif; font-size: 10px; fill: black; font-weight: normal;">345241961</tspan></text><text transform="rotate(240.1756683985132) translate(241.66666666666669,0) rotate(180)"><tspan x="0" y="-2" style="font-family: Arial, sans-serif; font-size: 10px; fill: black; font-weight: bold;">291313524</tspan><tspan x="0" y="10" style="font-family: Arial, sans-serif; font-size: 10px; fill: black; font-weight: normal;">222167430</tspan></text><text transform="rotate(268.679037091354) translate(241.66666666666669,0) rotate(180)"><tspan x="0" y="-2" style="font-family: Arial, sans-serif; font-size: 10px; fill: black; font-weight: bold;">14156744</tspan><tspan x="0" y="10" style="font-family: Arial, sans-serif; font-size: 10px; fill: black; font-weight: normal;">11511960</tspan></text></g></svg>